/usr/bin/start-video-rec.sh: line 93: kill: (771) - No such process
ffmpeg version 2.8.17-0ubuntu0.1 Copyright (c) 2000-2020 the FFmpeg developers
  built with gcc 5.4.0 (Ubuntu 5.4.0-6ubuntu1~16.04.12) 20160609
  configuration: --prefix=/usr --extra-version=0ubuntu0.1 --build-suffix=-ffmpeg --toolchain=hardened --libdir=/usr/lib/x86_64-linux-gnu --incdir=/usr/include/x86_64-linux-gnu --cc=cc --cxx=g++ --enable-gpl --enable-shared --disable-stripping --disable-decoder=libopenjpeg --disable-decoder=libschroedinger --enable-avresample --enable-avisynth --enable-gnutls --enable-ladspa --enable-libass --enable-libbluray --enable-libbs2b --enable-libcaca --enable-libcdio --enable-libflite --enable-libfontconfig --enable-libfreetype --enable-libfribidi --enable-libgme --enable-libgsm --enable-libmodplug --enable-libmp3lame --enable-libopenjpeg --enable-libopus --enable-libpulse --enable-librtmp --enable-libschroedinger --enable-libshine --enable-libsnappy --enable-libsoxr --enable-libspeex --enable-libssh --enable-libtheora --enable-libtwolame --enable-libvorbis --enable-libvpx --enable-libwavpack --enable-libwebp --enable-libx265 --enable-libxvid --enable-libzvbi --enable-openal --enable-opengl --enable-x11grab --enable-libdc1394 --enable-libiec61883 --enable-libzmq --enable-frei0r --enable-libx264 --enable-libopencv
  libavutil      54. 31.100 / 54. 31.100
  libavcodec     56. 60.100 / 56. 60.100
  libavformat    56. 40.101 / 56. 40.101
  libavdevice    56.  4.100 / 56.  4.100
  libavfilter     5. 40.101 /  5. 40.101
  libavresample   2.  1.  0 /  2.  1.  0
  libswscale      3.  1.101 /  3.  1.101
  libswresample   1.  2.101 /  1.  2.101
  libpostproc    53.  3.100 / 53.  3.100
Input #0, matroska,webm, from '/home/seluser/videos/vid_chrome_or_firefox_40001.mkv':
  Metadata:
    ENCODER         : Lavf56.40.101
  Duration: 00:01:04.90, start: 0.000000, bitrate: 25 kb/s
    Stream #0:0: Video: h264 (Constrained Baseline), yuv420p, 1366x768, SAR 1:1 DAR 683:384, 10 fps, 10 tbr, 1k tbn, 20 tbc (default)
    Metadata:
      ENCODER         : Lavc56.60.100 libx264
      DURATION        : 00:01:04.900000000
[libx264 @ 0xe33b20] using SAR=1/1
[libx264 @ 0xe33b20] using cpu capabilities: MMX2 SSE2Fast SSSE3 SSE4.2 AVX FMA3 AVX2 LZCNT BMI2
[libx264 @ 0xe33b20] profile Constrained Baseline, level 3.2
[libx264 @ 0xe33b20] 264 - core 148 r2643 5c65704 - H.264/MPEG-4 AVC codec - Copyleft 2003-2015 - http://www.videolan.org/x264.html - options: cabac=0 ref=1 deblock=0:0:0 analyse=0:0 me=dia subme=0 psy=1 psy_rd=1.00:0.00 mixed_ref=0 me_range=16 chroma_me=1 trellis=0 8x8dct=0 cqm=0 deadzone=21,11 fast_pskip=1 chroma_qp_offset=0 threads=3 lookahead_threads=1 sliced_threads=0 nr=0 decimate=1 interlaced=0 bluray_compat=0 constrained_intra=0 bframes=0 weightp=0 keyint=250 keyint_min=10 scenecut=0 intra_refresh=0 rc=crf mbtree=0 crf=23.0 qcomp=0.60 qpmin=0 qpmax=69 qpstep=4 ip_ratio=1.40 aq=0
Output #0, mp4, to '/home/seluser/videos/vid_chrome_or_firefox_40001.mp4':
  Metadata:
    encoder         : Lavf56.40.101
    Stream #0:0: Video: h264 (libx264) ([33][0][0][0] / 0x0021), yuv420p, 1366x768 [SAR 1:1 DAR 683:384], q=-1--1, 10 fps, 10240 tbn, 10 tbc (default)
    Metadata:
      DURATION        : 00:01:04.900000000
      encoder         : Lavc56.60.100 libx264
Stream mapping:
  Stream #0:0 -> #0:0 (h264 (native) -> h264 (libx264))
Press [q] to stop, [?] for help
frame=    4 fps=1.8 q=0.0 size=       0kB time=00:00:00.00 bitrate=N/A    
frame=    5 fps=1.5 q=13.0 size=      25kB time=00:00:00.10 bitrate=2055.4kbits/s    
frame=    7 fps=1.7 q=11.0 size=      35kB time=00:00:00.30 bitrate= 948.4kbits/s    
frame=   12 fps=2.6 q=9.0 size=      43kB time=00:00:00.80 bitrate= 439.9kbits/s    
frame=   16 fps=3.1 q=9.0 size=      44kB time=00:00:01.20 bitrate= 299.3kbits/s    
frame=   21 fps=3.6 q=9.0 size=      44kB time=00:00:01.70 bitrate= 212.8kbits/s    
frame=   28 fps=4.4 q=9.0 size=      44kB time=00:00:02.40 bitrate= 151.3kbits/s    
frame=   34 fps=4.9 q=9.0 size=      45kB time=00:00:03.00 bitrate= 121.8kbits/s    
frame=   43 fps=5.8 q=9.0 size=      45kB time=00:00:03.90 bitrate=  94.4kbits/s    
frame=   55 fps=6.9 q=9.0 size=      45kB time=00:00:05.10 bitrate=  72.8kbits/s    
frame=   71 fps=8.3 q=9.0 size=      46kB time=00:00:06.70 bitrate=  56.1kbits/s    
frame=   84 fps=9.3 q=9.0 size=      48kB time=00:00:08.00 bitrate=  49.1kbits/s    
frame=  109 fps= 11 q=9.0 size=      49kB time=00:00:10.50 bitrate=  38.0kbits/s    
frame=  138 fps= 14 q=9.0 size=      50kB time=00:00:13.40 bitrate=  30.5kbits/s    
frame=  163 fps= 15 q=9.0 size=      51kB time=00:00:15.90 bitrate=  26.2kbits/s    
frame=  196 fps= 18 q=9.0 size=      52kB time=00:00:19.20 bitrate=  22.2kbits/s    
frame=  220 fps= 19 q=9.0 size=      53kB time=00:00:21.60 bitrate=  20.2kbits/s    
frame=  245 fps= 20 q=9.0 size=      54kB time=00:00:24.10 bitrate=  18.5kbits/s    
frame=  277 fps= 22 q=9.0 size=      96kB time=00:00:27.30 bitrate=  28.8kbits/s    
frame=  309 fps= 23 q=9.0 size=      97kB time=00:00:30.50 bitrate=  26.1kbits/s    
frame=  348 fps= 25 q=9.0 size=      98kB time=00:00:34.40 bitrate=  23.4kbits/s    
frame=  375 fps= 26 q=9.0 size=     101kB time=00:00:37.10 bitrate=  22.2kbits/s    
frame=  408 fps= 28 q=9.0 size=     103kB time=00:00:40.40 bitrate=  20.9kbits/s    
frame=  448 fps= 29 q=9.0 size=     109kB time=00:00:44.40 bitrate=  20.1kbits/s    
frame=  484 fps= 31 q=9.0 size=     113kB time=00:00:48.00 bitrate=  19.2kbits/s    
frame=  521 fps= 32 q=9.0 size=     166kB time=00:00:51.70 bitrate=  26.3kbits/s    
frame=  558 fps= 33 q=9.0 size=     181kB time=00:00:55.40 bitrate=  26.7kbits/s    
frame=  575 fps= 34 q=-1.0 Lsize=     192kB time=00:00:57.50 bitrate=  27.3kbits/s    
video:189kB audio:0kB subtitle:0kB other streams:0kB global headers:0kB muxing overhead: 1.618131%
[libx264 @ 0xe33b20] frame I:3     Avg QP:10.67  size: 36040
[libx264 @ 0xe33b20] frame P:572   Avg QP: 9.12  size:   148
[libx264 @ 0xe33b20] mb I  I16..4: 100.0%  0.0%  0.0%
[libx264 @ 0xe33b20] mb P  I16..4:  0.1%  0.0%  0.0%  P16..4:  0.1%  0.0%  0.0%  0.0%  0.0%    skip:99.8%
[libx264 @ 0xe33b20] coded y,uvDC,uvAC intra: 7.5% 4.8% 4.6% inter: 0.0% 0.0% 0.0%
[libx264 @ 0xe33b20] i16 v,h,dc,p: 83% 16%  2%  0%
[libx264 @ 0xe33b20] i8c dc,h,v,p: 87% 12%  1%  0%
[libx264 @ 0xe33b20] kb/s:26.79
Exiting normally, received signal 15.
